<?xml version="1.0" encoding="UTF-8" standalone="no"?>
<svg width="16px" height="30px" viewBox="0 0 16 30" version="1.1" xmlns="http://www.w3.org/2000/svg" xmlns:xlink="http://www.w3.org/1999/xlink" xmlns:sketch="http://www.bohemiancoding.com/sketch/ns">
    <g id="Page-1" stroke="none" stroke-width="1" fill="none" fill-rule="evenodd" sketch:type="MSPage">
        <path d="M15.0739453,0.594899375 C14.2544866,0.421416797 13.4779839,0.279775234 12.7444358,0.169970547 C12.0108616,0.0602285156 11.2128908,0.00357015625 10.3505211,0 C7.83851053,0.0106523437 6.02428658,0.584305625 4.90784763,1.72096172 C3.7914,2.85767344 3.24391105,4.49365156 3.26538789,6.62889453 L3.26538789,9.73087578 L0.08781,9.73087578 L0.08781,14.745043 L3.26538789,14.745043 L3.26538789,30 L9.44877711,30 L9.44877711,14.745043 L13.9574976,14.745043 L14.3869026,9.73087578 L9.44877711,9.73087578 L9.44877711,7.30878125 C9.41298395,6.62183594 9.51675474,6.08359453 9.76009421,5.69405 C10.0034108,5.30455625 10.6009942,5.10625625 11.5528476,5.09915 C11.9330345,5.10092344 12.3749605,5.12927422 12.8786258,5.18413437 C13.3822642,5.23904609 13.8563961,5.30986797 14.3010205,5.39659922 L15.0739453,0.594899375 Z" id="Shape" fill="#999999" sketch:type="MSShapeGroup"></path>
    </g>
</svg>