<?xml version="1.0" encoding="UTF-8" standalone="no"?>
<svg width="30px" height="31px" viewBox="0 0 30 31" version="1.1" xmlns="http://www.w3.org/2000/svg" xmlns:xlink="http://www.w3.org/1999/xlink" xmlns:sketch="http://www.bohemiancoding.com/sketch/ns">
    <g id="Page-1" stroke="none" stroke-width="1" fill="none" fill-rule="evenodd" sketch:type="MSPage">
        <path d="M15,-6.4516129e-05 C6.71625,-6.4516129e-05 0,6.93283871 0,15.4838065 C0,22.3257419 4.2975,28.1283226 10.258125,30.1760645 C11.008125,30.3173548 11.281875,29.8392903 11.281875,29.4309032 C11.281875,29.0621935 11.2678125,27.8409032 11.26125,26.548 C7.0903125,27.4838065 6.208125,24.721871 6.208125,24.721871 C5.5246875,22.9334839 4.543125,22.4573548 4.543125,22.4573548 C3.18,21.4973548 4.64625,21.5157419 4.64625,21.5157419 C6.151875,21.6231613 6.945,23.1105806 6.945,23.1105806 C8.28375,25.4767097 10.456875,24.7925161 11.31,24.3957419 C11.4459375,23.398 11.8340625,22.7138065 12.2625,22.3276774 C8.9325,21.9367097 5.43,20.608 5.43,14.6747742 C5.43,12.9831613 6.015,11.6031613 6.973125,10.5192903 C6.8203125,10.1263871 6.30375,8.55090323 7.12125,6.41993548 C7.12125,6.41993548 8.379375,6.00380645 11.24625,8.008 C12.4415625,7.66348387 13.725,7.49316129 15,7.48735484 C16.2740625,7.49316129 17.5584375,7.66541935 18.755625,8.00993548 C21.6178125,6.00477419 22.876875,6.42187097 22.876875,6.42187097 C23.6971875,8.55477419 23.180625,10.1283226 23.026875,10.5192903 C23.9878125,11.6031613 24.5690625,12.9831613 24.5690625,14.6747742 C24.5690625,20.6225161 21.0609375,21.9328387 17.71875,22.3160645 C18.25875,22.7960645 18.736875,23.7376774 18.736875,25.1815484 C18.736875,27.2515484 18.7171875,28.9199355 18.7171875,29.4309032 C18.7171875,29.8431613 18.99,30.3250968 19.7503125,30.174129 C25.7071875,28.1234839 30.0009375,22.3209032 30.0009375,15.481871 C30.0009375,6.93090323 23.2846875,-0.002 15.0009375,-0.002 L15,-6.4516129e-05 Z" id="Shape" fill="#999999" sketch:type="MSShapeGroup"></path>
    </g>
</svg>