<?xml version="1.0" encoding="UTF-8" standalone="no"?>
<svg width="30px" height="30px" viewBox="0 0 30 30" version="1.1" xmlns="http://www.w3.org/2000/svg" xmlns:xlink="http://www.w3.org/1999/xlink" xmlns:sketch="http://www.bohemiancoding.com/sketch/ns">
    <g id="Page-1" stroke="none" stroke-width="1" fill="none" fill-rule="evenodd" sketch:type="MSPage">
        <path d="M3.4375,0 C1.5625,0 0,1.5625 0,3.4375 L0,26.5625 C0,28.4375 1.5625,30 3.4375,30 L26.5625,30 C28.4375,30 30,28.4375 30,26.5625 L30,3.4375 C30,1.5625 28.4375,0 26.5625,0 L3.4375,0 L3.4375,0 Z M21.875,3.4375 L25.3125,3.4375 C26.015625,3.4375 26.5625,4.0625 26.5625,4.6875 L26.5625,8.125 C26.5625,8.75 25.9375,9.0625 25.3125,9.0625 L21.875,9.0625 C21.25,9.0625 20.625,8.4375 20.625,7.8125 L20.625,4.6875 C20.625,4.0625 21.25,3.4375 21.875,3.4375 L21.875,3.4375 Z M15,8.75 C18.2791907,8.75 20.9375,11.4083093 20.9375,14.6875 C20.9375,16.2622229 20.3119438,17.7724493 19.1984465,18.8859465 C18.0849493,19.9994438 16.5747229,20.625 15,20.625 C11.7208093,20.625 9.0625,17.9666907 9.0625,14.6875 C9.0625,11.4083093 11.7208093,8.75 15,8.75 L15,8.75 Z M3.4375,12.5 L6.29653906,12.5 C6.06075497,13.3124896 5.93990193,14.153993 5.9375,15 C5.9375,20.0050805 9.99491945,24.0625 15,24.0625 C20.0050805,24.0625 24.0625,20.0050805 24.0625,15 C24.0583129,14.1537338 23.9356099,13.3122253 23.6979672,12.5 L26.5625,12.5 L26.5625,25.3125 C26.5625,25.9375 25.9375,26.5625 25.3125,26.5625 L4.6875,26.5625 C4.0625,26.5625 3.4375,25.9375 3.4375,25.3125 L3.4375,12.5 L3.4375,12.5 Z" id="Shape" fill="#999999" sketch:type="MSShapeGroup"></path>
    </g>
</svg>