<?xml version="1.0" encoding="UTF-8" standalone="no"?>
<svg width="31px" height="25px" viewBox="0 0 31 25" version="1.1" xmlns="http://www.w3.org/2000/svg" xmlns:xlink="http://www.w3.org/1999/xlink" xmlns:sketch="http://www.bohemiancoding.com/sketch/ns">
    <g id="Page-1" stroke="none" stroke-width="1" fill="none" fill-rule="evenodd" sketch:type="MSPage">
        <path d="M30.7136163,2.95934505 C29.611056,3.46138737 28.4259361,3.80054297 27.1823759,3.95312435 C28.4515598,3.17206706 29.4265979,1.93526367 29.8857247,0.461436849 C28.6976042,1.18481445 27.3818156,1.70992904 25.9812152,1.99294336 C24.8597797,0.766292318 23.2618319,0 21.4933605,0 C18.0978805,0 15.3448103,2.82568229 15.3448103,6.3110638 C15.3448103,6.80572331 15.3991744,7.28746289 15.5040203,7.74936068 C10.3940721,7.48618815 5.8634835,4.97351367 2.83105908,1.15512891 C2.30174682,2.08722982 1.9985464,3.17145117 1.9985464,4.32811849 C1.9985464,6.51778711 3.08398191,8.44951302 4.73386331,9.58126237 C3.72597747,9.5485 2.77786394,9.26456315 1.94896902,8.79189844 C1.94839819,8.81820052 1.94839819,8.8445026 1.94839819,8.87126562 C1.94839819,11.9290957 4.06781891,14.4797917 6.88046574,15.0597721 C6.36460971,15.2039714 5.82142293,15.2811849 5.26067346,15.2811849 C4.86446859,15.2811849 4.47930728,15.2415299 4.10382652,15.1679167 C4.88624111,17.6751758 7.15691479,19.5000195 9.8474391,19.5507292 C7.74318329,21.2436198 5.09209819,22.2525911 2.21138783,22.2525911 C1.71508572,22.2525911 1.22563223,22.2226172 0.744665,22.1643359 C3.46563709,23.9549805 6.69755073,25 10.1697254,25 C21.4789953,25 27.6635359,15.3830859 27.6635359,7.04290169 C27.6635359,6.76926953 27.6573837,6.49717643 27.645555,6.2264668 C28.8470137,5.33651042 29.889333,4.22506445 30.713629,2.9593444" id="Shape" fill="#999999" sketch:type="MSShapeGroup"></path>
    </g>
</svg>