<svg width="30" height="31" viewBox="0 0 30 31" xmlns="http://www.w3.org/2000/svg"><path d="M15 0C6.716 0 0 6.933 0 15.484c0 6.842 4.298 12.644 10.258 14.692.75.14 1.024-.337 1.024-.745 0-.368-.014-1.59-.02-2.882-4.172.936-5.054-1.826-5.054-1.826-.683-1.79-1.665-2.265-1.665-2.265-1.363-.96.103-.94.103-.94 1.506.106 2.3 1.594 2.3 1.594 1.338 2.367 3.51 1.683 4.364 1.286.136-.998.524-1.682.952-2.068-3.33-.39-6.832-1.72-6.832-7.653 0-1.692.585-3.072 1.543-4.156-.153-.394-.67-1.97.148-4.1 0 0 1.26-.416 4.126 1.588 1.196-.345 2.48-.515 3.754-.52 1.274.005 2.558.177 3.756.522 2.862-2.005 4.12-1.588 4.12-1.588.82 2.133.305 3.706.15 4.097.962 1.083 1.543 2.463 1.543 4.155 0 5.948-3.51 7.258-6.85 7.64.54.48 1.017 1.423 1.017 2.867 0 2.07-.02 3.738-.02 4.25 0 .41.273.893 1.033.742C25.707 28.124 30 22.32 30 15.482 30 6.932 23.286-.002 15-.002V0z" fill="#999" fill-rule="evenodd"/></svg>