<svg width="30" height="30" viewBox="0 0 30 30" xmlns="http://www.w3.org/2000/svg"><path d="M3.438 0C1.562 0 0 1.563 0 3.438v23.125C0 28.438 1.563 30 3.438 30h23.125C28.438 30 30 28.437 30 26.562V3.438C30 1.563 28.437 0 26.562 0H3.438zm18.437 3.438h3.438c.703 0 1.25.624 1.25 1.25v3.437c0 .625-.625.938-1.25.938h-3.438c-.625 0-1.25-.626-1.25-1.25V4.688c0-.625.625-1.25 1.25-1.25zM15 8.75c3.28 0 5.938 2.658 5.938 5.938 0 1.574-.626 3.084-1.74 4.198-1.113 1.113-2.623 1.74-4.198 1.74-3.28 0-5.938-2.66-5.938-5.94 0-3.278 2.66-5.936 5.938-5.936zM3.437 12.5h2.86c-.236.812-.357 1.654-.36 2.5 0 5.005 4.058 9.063 9.063 9.063 5.005 0 9.063-4.058 9.063-9.063-.005-.846-.127-1.688-.365-2.5h2.864v12.813c0 .625-.625 1.25-1.25 1.25H4.688c-.625 0-1.25-.625-1.25-1.25V12.5z" fill="#999" fill-rule="evenodd"/></svg>