<svg width="31" height="25" viewBox="0 0 31 25" xmlns="http://www.w3.org/2000/svg"><path d="M30.714 2.96c-1.103.5-2.288.84-3.532.993 1.27-.78 2.245-2.018 2.704-3.492-1.188.725-2.504 1.25-3.905 1.533C24.86.766 23.263 0 21.494 0c-3.395 0-6.148 2.826-6.148 6.31 0 .496.054.977.16 1.44-5.11-.264-9.642-2.776-12.674-6.595C2.303 2.087 2 3.17 2 4.328 2 6.518 3.083 8.45 4.733 9.58c-1.008-.03-1.956-.315-2.785-.788-.002.026-.002.053-.002.08 0 3.057 2.12 5.608 4.932 6.188-.515.144-1.06.22-1.62.22-.396 0-.78-.038-1.156-.112.782 2.507 3.053 4.332 5.743 4.383-2.104 1.694-4.755 2.703-7.636 2.703-.495 0-.984-.03-1.465-.09C3.465 23.956 6.698 25 10.17 25c11.31 0 17.494-9.617 17.494-17.957 0-.274-.007-.546-.018-.817 1.2-.89 2.243-2 3.068-3.267" fill="#999" fill-rule="evenodd"/></svg>